<svg xmlns="http://www.w3.org/2000/svg" xmlns:xlink="http://www.w3.org/1999/xlink" preserveAspectRatio="xMidYMid meet" version="1.0" viewBox="0.0 0.0 713.8 786.0" zoomAndPan="magnify" style="fill: rgb(0, 0, 0);" original_string_length="7408"><defs><clipPath id="__id925_s8604euxq"><path d="M 0 381 L 713.761719 381 L 713.761719 627 L 0 627 Z M 0 381"/></clipPath><clipPath id="__id926_s8604euxq"><path d="M 0 597 L 713.761719 597 L 713.761719 786 L 0 786 Z M 0 597"/></clipPath></defs><g><g clip-path="url(#__id925_s8604euxq)" id="__id927_s8604euxq"><path d="M 713.761719 508.445312 L 713.761719 626.722656 C 705.101562 627.523438 696.457031 626.355469 687.890625 622.351562 C 645.796875 602.464844 625.109375 560.546875 572.578125 565.808594 C 523.792969 570.710938 501.578125 662.203125 451.015625 609.597656 C 423.007812 580.417969 398.929688 557.601562 355.5 567.949219 C 308.851562 579.097656 283.707031 664.972656 232.238281 600.484375 C 206.203125 568.035156 165.796875 566.070312 131.910156 588.273438 C 104.175781 606.375 91.238281 629.300781 52.804688 620.292969 C 32.464844 615.46875 13.472656 598.796875 0 582.476562 L 0 508.445312 C 0 479.203125 23.640625 455.5625 52.894531 455.5625 L 99.894531 455.5625 L 99.894531 404.820312 C 114.695312 416.054688 132.265625 423.023438 151.441406 424.625 C 187.5625 427.484375 218.773438 363.710938 249.8125 400.988281 C 269.074219 424.171875 294.046875 431.3125 322.226562 418.375 C 334.359375 412.757812 343.097656 399.734375 352.199219 390.554688 C 375.121094 367.175781 397.148438 396.4375 412.132812 412.050781 C 432.46875 433.183594 460.207031 430.859375 481.515625 413.195312 C 498.375 399.296875 504.347656 377.347656 531.726562 384.304688 C 551.171875 389.214844 566.691406 410.082031 583.628906 420.519531 C 593.617188 426.664062 603.699219 428.457031 613.867188 427.828125 L 613.867188 455.5625 L 660.960938 455.5625 C 690.125 455.5625 713.761719 479.203125 713.761719 508.445312" style="fill: rgb(214, 108, 66);"/></g><g id="__id928_s8604euxq"><path d="M 613.867188 354.339844 L 613.867188 402.765625 C 607.800781 403.308594 601.832031 402.503906 595.851562 399.644531 C 565.441406 385.292969 550.542969 355.054688 512.554688 358.886719 C 477.324219 362.363281 461.359375 428.457031 424.796875 390.46875 C 404.640625 369.40625 387.246094 352.914062 355.855469 360.398438 C 322.226562 368.429688 304.039062 430.40625 266.9375 383.863281 C 248.121094 360.398438 218.957031 359.0625 194.511719 375.03125 C 174.445312 388.148438 165.089844 404.644531 137.347656 398.222656 C 122.988281 394.734375 109.53125 383.152344 99.894531 371.550781 L 99.894531 354.339844 C 99.894531 333.296875 117.015625 316.261719 137.96875 316.261719 L 190.414062 316.261719 L 190.414062 274.332031 C 199.871094 281.386719 210.925781 285.675781 222.96875 286.5625 C 246.515625 288.425781 266.9375 246.882812 287.089844 271.21875 C 299.667969 286.300781 315.898438 290.933594 334.277344 282.558594 C 342.210938 278.898438 347.914062 270.414062 353.800781 264.355469 C 368.78125 249.195312 383.144531 268.273438 392.871094 278.441406 C 406.160156 292.171875 424.175781 290.65625 438.085938 279.15625 C 449.046875 270.066406 452.976562 255.796875 470.8125 260.347656 C 483.476562 263.550781 493.644531 277.105469 504.707031 283.878906 C 510.859375 287.710938 517.097656 288.964844 523.4375 288.789062 L 523.4375 316.261719 L 575.789062 316.261719 C 596.824219 316.261719 613.867188 333.296875 613.867188 354.339844" style="fill: rgb(214, 108, 66);"/></g><g id="__id929_s8604euxq"><path d="M 523.4375 234.5625 L 523.4375 272.472656 C 519.777344 272.554688 516.210938 272.015625 512.644531 270.324219 C 492.847656 260.953125 483.027344 241.253906 458.328125 243.746094 C 435.40625 246.058594 424.96875 289.054688 401.160156 264.355469 C 387.960938 250.625 376.632812 239.914062 356.210938 244.738281 C 334.277344 250 322.5 290.394531 298.242188 260.066406 C 286.023438 244.824219 266.9375 243.832031 251.058594 254.265625 C 237.945312 262.835938 231.890625 273.640625 213.789062 269.351562 C 204.949219 267.296875 196.570312 260.347656 190.414062 253.203125 L 190.414062 234.5625 C 190.414062 220.925781 201.390625 209.863281 215.027344 209.863281 L 498.726562 209.863281 C 512.375 209.863281 523.4375 220.925781 523.4375 234.5625" style="fill: rgb(214, 108, 66);"/></g><g clip-path="url(#__id926_s8604euxq)" id="__id930_s8604euxq"><path d="M 713.761719 661.3125 L 713.761719 733.117188 C 713.761719 762.367188 690.125 786 660.960938 786 L 52.894531 786 C 23.640625 786 0 762.367188 0 733.117188 L 0 628.847656 C 20.785156 644.824219 45.40625 654.71875 72.25 656.859375 C 122.277344 660.886719 165.621094 572.5 208.609375 624.210938 C 235.277344 656.320312 269.789062 666.148438 308.851562 648.222656 C 325.707031 640.449219 337.84375 622.519531 350.40625 609.6875 C 382.167969 577.390625 412.667969 617.886719 433.445312 639.5625 C 461.539062 668.722656 499.972656 665.601562 529.503906 641.15625 C 552.871094 621.8125 561.160156 591.488281 599.058594 601.027344 C 625.992188 607.890625 647.578125 636.792969 671.035156 651.25 C 685.035156 659.886719 699.402344 662.394531 713.761719 661.3125" style="fill: rgb(214, 108, 66);"/></g><g id="__id931_s8604euxq"><path d="M 366.953125 85.773438 L 346.886719 85.773438 C 341.964844 85.773438 337.976562 89.761719 337.976562 94.6875 L 337.976562 208.90625 C 337.976562 213.839844 341.964844 217.828125 346.886719 217.828125 L 366.953125 217.828125 C 371.886719 217.828125 375.878906 213.839844 375.878906 208.90625 L 375.878906 94.6875 C 375.878906 89.761719 371.886719 85.773438 366.953125 85.773438" style="fill: rgb(214, 108, 66);"/></g><g id="__id932_s8604euxq"><path d="M 423.816406 109.113281 L 403.746094 109.113281 C 398.816406 109.113281 394.828125 113.101562 394.828125 118.03125 L 394.828125 232.246094 C 394.828125 237.183594 398.816406 241.167969 403.746094 241.167969 L 423.816406 241.167969 C 428.738281 241.167969 432.730469 237.183594 432.730469 232.246094 L 432.730469 118.03125 C 432.730469 113.101562 428.738281 109.113281 423.816406 109.113281" style="fill: rgb(214, 108, 66);"/></g><g id="__id933_s8604euxq"><path d="M 310.097656 109.113281 L 290.03125 109.113281 C 285.101562 109.113281 281.113281 113.101562 281.113281 118.03125 L 281.113281 232.246094 C 281.113281 237.183594 285.101562 241.167969 290.03125 241.167969 L 310.097656 241.167969 C 315.027344 241.167969 319.023438 237.183594 319.023438 232.246094 L 319.023438 118.03125 C 319.023438 113.101562 315.027344 109.113281 310.097656 109.113281" style="fill: rgb(214, 108, 66);"/></g><g id="__id934_s8604euxq"><path d="M 314.082031 70.164062 C 313.242188 54.921875 299.925781 23.988281 299.09375 23.34375 L 299.085938 23.34375 C 298.257812 23.988281 284.933594 54.921875 284.097656 70.164062 C 283.640625 78.597656 285.179688 90.144531 290.492188 95.890625 L 307.691406 95.890625 C 312.988281 90.144531 314.539062 78.597656 314.082031 70.164062" style="fill: rgb(214, 108, 66);"/></g><g id="__id935_s8604euxq"><path d="M 371.914062 46.824219 C 371.074219 31.582031 357.753906 0.644531 356.921875 0 C 356.101562 0.644531 342.773438 31.582031 341.925781 46.824219 C 341.472656 55.257812 343.011719 66.800781 348.316406 72.550781 L 365.519531 72.550781 C 370.832031 66.800781 372.371094 55.257812 371.914062 46.824219" style="fill: rgb(214, 108, 66);"/></g><g id="__id936_s8604euxq"><path d="M 428.769531 70.164062 C 427.929688 54.921875 414.605469 23.988281 413.777344 23.34375 L 413.773438 23.34375 C 412.949219 23.988281 399.621094 54.921875 398.785156 70.164062 C 398.335938 78.597656 399.867188 90.144531 405.175781 95.890625 L 422.382812 95.890625 C 427.679688 90.144531 429.230469 78.597656 428.769531 70.164062" style="fill: rgb(214, 108, 66);"/></g></g></svg>