<svg xmlns="http://www.w3.org/2000/svg" xmlns:xlink="http://www.w3.org/1999/xlink" preserveAspectRatio="xMidYMid meet" version="1.0" viewBox="0.0 -0.2 440.0 500.6" zoomAndPan="magnify" style="fill: rgb(162, 29, 76);" original_string_length="5043"><g><g id="__id942_s8604euxq"><path d="M368.3,451.6c0,27-82.4,48.8-184.1,48.8S0,478.5,0,451.6" style="fill: inherit;"/></g><g id="__id943_s8604euxq"><path d="M417.1,287.8c-13-13.2-32.1-17.7-51.4-14c1.7-13.4,2.6-27.2,2.6-41.3H0C0,367,82.4,476,184.1,476 c53.9,0,102.4-30.6,136-79.4c23.8,16,60.3,10.2,86.2-15.2C435.2,353.1,440,311.1,417.1,287.8z M413,337.6 c-1.7,15-9.3,29.7-21.3,41.5c-12,11.8-26.9,19.1-41.9,20.5c-10.5,1-20.1-1-27.8-5.7c19.3-28.8,33.6-63.8,40.8-102.4 c1.4-0.2,2.9-0.4,4.3-0.6c14.1-1.3,26.5,2.7,35.1,11.4C410.7,311,414.6,323.6,413,337.6z" style="fill: inherit;"/></g><g><g id="__id944_s8604euxq"><path d="M185.1,1.3c-0.3-0.6-0.9-0.8-1.4-0.6c-0.5,0.1-1,0.5-1.4,0.8c-0.4,0.4-0.8,0.8-1,1.3c-0.1,0.2-0.2,0.5-0.3,0.7l-0.3,0.8 c-0.9,2.3-1.7,4.6-2.4,6.9c-1.4,4.6-2.4,9.2-2.9,13.8c-0.5,4.5-0.3,9,0.5,13.1c0.3,1,0.4,2,0.8,3l0.5,1.5l0.6,1.4 c0.7,1.9,1.8,3.7,2.8,5.5c1.1,1.8,2.4,3.6,3.8,5.5l4.4,5.7c1.5,2,3.1,4.1,4.6,6.3c1.5,2.3,2.9,4.6,4.2,7c2.6,4.9,4.7,10.1,6,15.7 c1.4,5.6,1.8,11.7,1.1,17.6c-0.4,3-1,5.8-1.7,8.6c-0.8,2.8-1.8,5.4-2.8,8c-2.2,5.1-4.8,9.7-7.5,14.1c-2.7,4.4-5.4,8.4-8,12.4 c-1.3,2-2.5,4-3.7,6c-1.2,2-2.3,3.9-3.2,5.9c-1,2-1.9,4-2.6,6c-0.7,2-1.3,4.1-1.8,6.1c-0.8,4.1-0.9,8.4-0.1,12.7 c0.4,2.1,1,4.2,1.9,6.2c0.9,2,2,3.9,3.4,5.6c0.3,0.5,0.8,0.8,1.1,1.2c0.2,0.2,0.4,0.4,0.6,0.6l0.6,0.5c0.8,0.7,2,1.5,3,2.5 c1,1,1.8,2,2.4,3.3c0.3,0.6,0.5,1.4,0.4,2.1c-0.1,0.7-0.6,1.3-1.1,1.6c0.4-0.5,0.5-1.1,0.4-1.6c-0.1-0.5-0.4-0.9-0.8-1.3 c-0.8-0.8-1.8-1.4-2.8-1.9c-1.1-0.5-2-0.8-3.4-1.3l-0.9-0.4c-0.3-0.1-0.6-0.3-0.9-0.5c-0.6-0.3-1.2-0.6-1.8-1 c-4.7-3-8.2-7.7-10.5-12.8c-1.1-2.6-2-5.3-2.5-8c-0.5-2.8-0.8-5.6-0.8-8.5c0-2.9,0.4-5.6,0.9-8.4c0.5-2.7,1.2-5.4,2.1-8 c1.7-5.2,3.9-10,6.3-14.5c2.3-4.6,4.8-8.9,7-13c4.4-8.3,8.1-16.4,9-24.2c0.9-7.6-1-15.8-4.5-23.8c-0.9-2-1.9-4-3-5.9 c-1.1-1.9-2.3-3.9-3.6-6c-2.6-4.1-5.4-8.6-7.7-13.7c-1.2-2.6-2.1-5.3-2.8-8.2c-0.7-2.8-1-5.7-1.1-8.6c-0.1-5.7,0.9-11.2,2.7-16.2 c1.8-5,4.1-9.7,7-14c1.4-2.1,2.9-4.2,4.6-6.1l0.6-0.7c0.3-0.3,0.5-0.6,0.8-0.8c0.6-0.5,1.2-0.8,1.8-1.1c0.6-0.3,1.4-0.4,2.1-0.4 c0.4,0,0.7,0.2,1,0.4C184.9,0.7,185,1,185.1,1.3z" style="fill: inherit;"/></g><g id="__id945_s8604euxq"><path d="M239.8,63c-0.3-0.4-0.7-0.4-0.9-0.3c-0.3,0.1-0.6,0.4-0.8,0.6c-0.2,0.3-0.4,0.6-0.5,0.9c-0.1,0.1-0.1,0.3-0.1,0.4 l-0.2,0.6c-0.5,1.6-0.9,3.1-1.2,4.7c-0.7,3.1-1.1,6.2-1.2,9.1c-0.1,2.9,0.2,5.7,0.9,8.2c0.4,1.2,0.8,2.4,1.3,3.5 c0.5,1.1,1.2,2.1,1.9,3.2c0.7,1.1,1.6,2.2,2.5,3.3l3,3.7c1,1.3,2.2,2.7,3.2,4.3c1,1.5,2,3.1,3,4.8c1.8,3.4,3.4,7,4.3,11 c1,4,1.3,8.3,0.8,12.7c-0.3,2.1-0.7,4.2-1.2,6.2c-0.6,2-1.3,3.8-2,5.6c-1.5,3.5-3.4,6.7-5.2,9.6c-1.9,2.9-3.7,5.6-5.5,8.1 c-0.9,1.3-1.7,2.5-2.5,3.8c-0.8,1.2-1.5,2.4-2.2,3.7c-0.6,1.2-1.3,2.4-1.8,3.7c-0.5,1.2-1,2.5-1.3,3.7c-0.6,2.4-0.9,5.1-0.6,7.7 c0.1,1.3,0.4,2.6,0.8,3.9c0.4,1.3,1,2.5,1.8,3.7c0.2,0.3,0.4,0.5,0.6,0.8c0.2,0.3,0.5,0.5,0.7,0.8c0.4,0.5,1.3,1.1,1.9,1.8 c0.6,0.7,1.2,1.5,1.5,2.4c0.2,0.5,0.3,1,0.2,1.5c-0.1,0.5-0.5,0.9-0.9,1.1c0.2-0.4,0.3-0.8,0.1-1.1c-0.1-0.3-0.3-0.5-0.6-0.8 c-0.6-0.4-1.2-0.7-1.9-1c-0.7-0.3-1.3-0.3-2.3-0.7c-0.5-0.1-0.9-0.3-1.3-0.5c-0.4-0.2-0.9-0.4-1.3-0.7c-3.4-1.9-6.1-5.1-7.8-8.6 c-0.9-1.8-1.5-3.7-2-5.6c-0.5-1.9-0.7-3.9-0.7-6c0-2.1,0.2-4,0.5-5.9c0.3-1.9,0.7-3.8,1.3-5.6c0.6-1.8,1.2-3.5,1.9-5.2 c0.7-1.7,1.4-3.3,2.2-4.8c1.5-3.1,3.1-6,4.5-8.7c2.8-5.5,4.9-10.5,5.4-14.9c0.5-4.3-0.5-9.1-2.6-14.1c-1.1-2.5-2.3-4.8-3.9-7.6 c-1.6-2.8-3.5-5.8-5-9.5c-0.8-1.8-1.4-3.8-1.8-5.9c-0.5-2-0.6-4.1-0.6-6.1c0.1-4,0.9-7.8,2.3-11.3c1.4-3.4,3.2-6.5,5.3-9.3 c1.1-1.4,2.2-2.7,3.4-3.9l0.5-0.5c0.2-0.2,0.4-0.4,0.6-0.5c0.4-0.3,0.9-0.5,1.3-0.7c0.5-0.1,1-0.2,1.5-0.2 c0.3,0.1,0.5,0.2,0.7,0.4C239.7,62.6,239.7,62.8,239.8,63z" style="fill: inherit;"/></g><g id="__id946_s8604euxq"><path d="M128.2,120.5c-0.2-0.2-0.4-0.1-0.5,0c-0.1,0.1-0.2,0.3-0.3,0.5c-0.1,0.2-0.1,0.4-0.2,0.5c0,0.1,0,0.2,0,0.2 c0,0.1,0,0.2,0,0.4c-0.1,1-0.2,2-0.3,2.9c-0.1,1.9-0.1,3.7,0.1,5.3c0.2,1.6,0.6,3,1.2,4.1c0.3,0.5,0.6,1.1,0.9,1.5 c0.3,0.4,0.7,0.8,1.1,1.3c0.9,0.9,2,2.1,3.3,3.6c1.3,1.5,2.9,3.5,4.1,5.6c1.2,2.2,2.3,4.6,3,7.2c0.7,2.7,0.9,5.7,0.6,8.6 c-0.2,1.5-0.5,2.9-0.8,4.2c-0.4,1.3-0.9,2.5-1.4,3.7c-1,2.3-2.2,4.3-3.4,6c-2.4,3.5-4.6,6-6.3,8.4c-1.7,2.4-2.9,4.3-3.2,7.2 c-0.1,0.7-0.1,1.4,0,2.1c0.1,0.7,0.2,1.4,0.5,2.1c0.1,0.3,0.3,0.7,0.5,1.1c0.1,0.3,0.7,0.8,1,1.3c0.3,0.5,0.7,1.1,0.8,1.7 c0.1,0.3,0.1,0.7,0,1.1c-0.1,0.4-0.4,0.6-0.7,0.6c0.1-0.3,0.1-0.5-0.1-0.6c-0.1-0.1-0.3-0.2-0.5-0.3c-0.4-0.1-0.8-0.2-1.2-0.3 c-0.4-0.1-0.7,0-1.4-0.2c-0.6-0.1-1.2-0.4-1.8-0.6c-2.4-1-4.3-3-5.6-5.3c-1.3-2.3-2.1-4.8-2.3-7.6c-0.1-1.4,0-2.7,0.1-3.9 c0.1-1.3,0.4-2.5,0.7-3.7c1.2-4.7,3.2-8.6,4.6-11.7c1.5-3.1,2.4-5.7,2.5-7.4c0.1-0.8,0.1-1.7-0.1-2.7c-0.1-1-0.5-2.2-0.9-3.5 c-0.2-0.6-0.5-1.3-0.8-2c-0.3-0.6-0.6-1.4-1.1-2.2c-0.8-1.7-1.9-3.6-2.8-6.1c-0.4-1.2-0.8-2.6-1.1-4c-0.2-1.4-0.3-2.8-0.2-4.1 c0.2-2.7,1-5.1,2-7.2c1.1-2.1,2.4-3.9,4-5.5c0.8-0.8,1.6-1.5,2.4-2.1c0.1-0.1,0.2-0.1,0.3-0.3c0.2-0.1,0.3-0.2,0.5-0.3 c0.3-0.2,0.6-0.3,0.9-0.4c0.3-0.1,0.7-0.1,1,0C128.1,119.8,128.3,120.2,128.2,120.5z" style="fill: inherit;"/></g></g></g></svg>